<?xml version="1.0" encoding="iso-8859-1"?>
<!-- Generator: Adobe Illustrator 19.0.0, SVG Export Plug-In . SVG Version: 6.00 Build 0)  -->
<svg version="1.1" id="Layer_1" xmlns="http://www.w3.org/2000/svg" xmlns:xlink="http://www.w3.org/1999/xlink" x="0px" y="0px"
	 viewBox="0 0 512 512" style="enable-background:new 0 0 512 512;" xml:space="preserve">
<path style="fill:#FF9911;" d="M511.997,248.703c0.005-0.762-0.003-1.521-0.018-2.282l0.017-7.413
	c0.149-19.595-6.365-38.791-19.357-57.074l-1.005,0.241l0.004-1.629c-13.044-17.864-31.641-33.837-55.276-47.482
	c-23.526-13.583-51.097-24.27-81.96-31.769l-2.41,3.396l0.011-3.971C321.618,93.539,289.656,89.827,257,89.683
	c-33.826-0.148-66.951,3.56-98.47,11.027l-0.012,3.878l-2.38-3.303c-30.185,7.352-57.241,17.804-80.431,31.08
	c-24.024,13.75-42.84,29.95-55.945,48.154l-0.004,1.623l-0.981-0.235C6.481,199.487,0.172,217.986,0.031,236.9l-0.028,36.094
	c-0.145,19.57,6.354,38.749,19.312,57.01v0.064l0.038-0.009c0.002,0.003,0.004,0.006,0.006,0.009v-0.01l0.956-0.23l-0.003,1.625
	c13.048,17.862,31.694,33.835,55.332,47.487c23.51,13.574,51.067,24.254,81.906,31.756v0.012l0.007-0.009
	c0.013,0.003,0.025,0.006,0.038,0.009v-0.063l2.401-3.383l-0.003,4.02c30.394,7.182,62.349,10.894,95.004,11.037
	c33.826,0.148,66.955-3.563,98.47-11.027l0.003-3.818l2.34,3.248l0.069-24.244l-0.02,24.239
	c30.185-7.352,57.245-17.807,80.439-31.08c24.015-13.75,42.836-29.948,55.936-48.154l0.001-1.608l0.931,0.224
	c12.304-17.58,18.606-36.08,18.747-54.994l0.059-25.52C511.978,249.289,511.995,248.997,511.997,248.703z"/>
<path style="fill:#FFEB9A;" d="M352.003,110.418L256,245.689l-97.471-135.283c31.52-7.466,64.64-11.176,98.47-11.031
	C289.658,99.521,321.612,103.234,352.003,110.418z"/>
<g>
	<polygon style="fill:#F18700;" points="352.003,110.418 351.928,136.817 255.925,272.088 256,245.689 	"/>
	<polygon style="fill:#F18700;" points="256,245.689 255.925,272.088 158.454,136.807 158.528,110.407 	"/>
	<polygon style="fill:#F18700;" points="491.64,190.242 491.565,216.642 258.323,272.664 258.398,246.264 	"/>
</g>
<path style="fill:#FFEB9A;" d="M436.356,142.761c23.638,13.648,42.232,29.618,55.284,47.482l-233.242,56.022l95.998-135.273
	C385.259,118.491,412.83,129.177,436.356,142.761z"/>
<polygon style="fill:#F18700;" points="253.613,246.262 253.537,272.662 19.686,216.616 19.761,190.216 "/>
<g>
	<path style="fill:#FFEB9A;" d="M156.136,110.978l97.476,135.285L19.761,190.216c13.104-18.208,31.917-34.406,55.94-48.156
		C98.892,128.785,125.948,118.332,156.136,110.978z"/>
	<path style="fill:#FFEB9A;" d="M492.633,191.63c12.992,18.282,19.506,37.478,19.365,57.073
		c-0.141,18.915-6.45,37.414-18.755,54.994l-233.848-56.048L492.633,191.63z"/>
</g>
<polygon style="fill:#F18700;" points="493.243,303.698 493.168,330.097 259.32,274.048 259.395,247.649 "/>
<path style="fill:#FFEB9A;" d="M252.627,247.649L19.39,303.669C6.397,285.387-0.117,266.19,0.029,246.598
	c0.141-18.919,6.446-37.416,18.751-54.997L252.627,247.649z"/>
<polygon style="fill:#F18700;" points="252.627,247.649 252.552,274.048 19.314,330.068 19.39,303.669 "/>
<path style="fill:#FFEB9A;" d="M492.262,305.082c-13.104,18.208-31.917,34.406-55.94,48.156
	c-23.19,13.276-50.246,23.729-80.435,31.082l-97.472-135.286L492.262,305.082z"/>
<g>
	<polygon style="fill:#F18700;" points="355.885,384.321 355.811,410.721 258.339,275.434 258.414,249.034 	"/>
	<polygon style="fill:#F18700;" points="253.624,249.034 253.549,275.434 157.551,410.707 157.625,384.307 	"/>
</g>
<g>
	<path style="fill:#FFEB9A;" d="M253.624,249.034l-95.999,135.273c-30.862-7.499-58.432-18.187-81.955-31.766
		c-23.642-13.65-42.236-29.621-55.284-47.487L253.624,249.034z"/>
	<path style="fill:#FFEB9A;" d="M256.022,249.609l97.471,135.282c-31.52,7.466-64.64,11.176-98.466,11.029
		c-32.66-0.141-64.617-3.856-95.009-11.039L256.022,249.609z"/>
</g>
<polygon style="fill:#F18700;" points="352.007,100.721 351.976,111.281 339.99,128.174 340.021,117.614 "/>
<path style="fill:#FF9911;" d="M340.021,117.614l-0.03,10.56c-54.218-12.769-115.237-12.771-169.315-0.008l0.03-10.56
	C224.784,104.843,285.801,104.845,340.021,117.614z"/>
<polygon style="fill:#F18700;" points="170.704,117.604 170.675,128.164 158.502,111.27 158.532,100.71 "/>
<path style="fill:#FEC377;" d="M352.007,100.721l-11.986,16.892c-54.218-12.769-115.237-12.771-169.315-0.008l-12.172-16.895
	c31.52-7.466,64.644-11.174,98.47-11.027C289.658,89.827,321.62,93.539,352.007,100.721z"/>
<path style="fill:#FF9911;" d="M462.499,187.547l-0.03,10.56c-11.021-15.073-27.164-29.191-48.423-41.465
	c-21.24-12.263-45.636-21.56-71.657-27.892l0.03-10.56c26.02,6.332,50.418,15.629,71.657,27.892
	C435.335,158.356,451.479,172.474,462.499,187.547z"/>
<polygon style="fill:#F18700;" points="491.639,180.548 491.61,191.108 462.469,198.106 462.499,187.547 "/>
<g>
	<path style="fill:#FEC377;" d="M436.364,133.066c23.634,13.645,42.232,29.618,55.276,47.482l-29.14,6.998
		c-11.021-15.073-27.164-29.191-48.423-41.465c-21.24-12.263-45.636-21.56-71.657-27.892l11.986-16.892
		C385.267,108.796,412.837,119.483,436.364,133.066z"/>
	<path style="fill:#FEC377;" d="M156.14,101.285l12.176,16.892c-25.97,6.334-50.283,15.634-71.392,27.902
		c-21.109,12.267-37.086,26.381-47.936,41.444l-29.223-7.005c13.104-18.203,31.921-34.404,55.945-48.154
		C98.899,119.09,125.955,108.637,156.14,101.285z"/>
</g>
<path style="fill:#FF9911;" d="M168.317,118.178l-0.03,10.56c-25.97,6.334-50.283,15.634-71.392,27.902
	c-21.109,12.267-37.086,26.381-47.936,41.444l0.03-10.56c10.85-15.063,26.827-29.177,47.936-41.444
	C118.034,133.812,142.347,124.512,168.317,118.178z"/>
<polygon style="fill:#F18700;" points="48.988,187.525 48.957,198.085 19.734,191.079 19.765,180.52 "/>
<g>
	<path style="fill:#FF9911;" d="M31.728,247.854l0.03-10.56c0.047-16.458,5.46-32.904,16.245-48.381l-0.03,10.56
		C37.188,214.948,31.774,231.395,31.728,247.854z"/>
	<path style="fill:#FF9911;" d="M480.275,238.574l-0.03,10.56c0.048-16.877-5.547-33.767-16.778-49.638l0.03-10.56
		C474.727,204.807,480.322,221.697,480.275,238.574z"/>
</g>
<path style="fill:#FEC377;" d="M492.64,181.935c12.992,18.282,19.506,37.478,19.357,57.074
	c-0.141,18.915-6.442,37.414-18.747,54.994l-29.248-7.01c21.872-31.357,21.686-66.696-0.507-98.058L492.64,181.935z"/>
<polygon style="fill:#F18700;" points="493.25,294.003 493.221,304.563 463.973,297.553 464.002,286.993 "/>
<path style="fill:#FF9911;" d="M511.997,239.008l-0.083,36.094c-0.141,18.915-6.442,37.414-18.747,54.994l0.083-36.094
	C505.555,276.422,511.856,257.923,511.997,239.008z"/>
<polygon style="fill:#F18700;" points="48.563,286.967 48.532,297.527 19.359,304.534 19.39,293.974 "/>
<path style="fill:#FF9911;" d="M19.39,293.974l-0.03,36.094c-12.988-18.28-19.502-37.481-19.357-57.074l0.03-36.094
	C-0.113,256.493,6.401,275.694,19.39,293.974z"/>
<path style="fill:#FEC377;" d="M48.002,188.911c-21.851,31.359-21.653,66.696,0.56,98.054l-29.173,7.008
	C6.401,275.694-0.113,256.493,0.033,236.9c0.141-18.915,6.45-37.414,18.747-54.994L48.002,188.911z"/>
<polygon style="fill:#F18700;" points="355.89,374.624 355.859,385.184 343.662,368.256 343.692,357.696 "/>
<path style="fill:#FF9911;" d="M492.265,295.39l-0.03,36.091c-13.1,18.205-31.921,34.404-55.936,48.154
	c-23.194,13.272-50.254,23.729-80.439,31.08l0.03-36.091c30.185-7.352,57.245-17.807,80.439-31.08
	C460.344,329.793,479.165,313.596,492.265,295.39z"/>
<path style="fill:#FEC377;" d="M492.265,295.39c-13.1,18.206-31.921,34.404-55.936,48.154
	c-23.194,13.272-50.254,23.728-80.439,31.08l-12.197-16.929c25.979-6.334,50.299-15.639,71.418-27.912
	c21.094-12.258,37.061-26.357,47.908-41.404L492.265,295.39z"/>
<polygon style="fill:#F18700;" points="169.641,357.684 169.61,368.244 157.595,385.173 157.625,374.613 "/>
<path style="fill:#FEC377;" d="M169.641,357.684l-12.015,16.929c-30.858-7.501-58.428-18.184-81.951-31.764
	c-23.638-13.652-42.235-29.625-55.284-47.487l29.169-7.005c11.021,15.058,27.155,29.167,48.399,41.432
	C119.198,342.05,143.608,351.35,169.641,357.684z"/>
<path style="fill:#FF9911;" d="M157.625,374.613l-0.03,36.094c-30.858-7.501-58.428-18.187-81.951-31.766
	c-23.638-13.652-42.284-29.625-55.332-47.487l0.078-36.091c13.048,17.862,31.645,33.835,55.284,47.487
	C99.197,356.429,126.767,367.111,157.625,374.613z"/>
<path style="fill:#FEC377;" d="M341.301,358.266l12.197,16.933c-31.516,7.464-64.644,11.174-98.47,11.027
	c-32.656-0.143-64.609-3.856-95.004-11.037l12.02-16.931C226.24,371.019,287.238,371.023,341.301,358.266z"/>
<path style="fill:#FF9911;" d="M353.498,375.199l-0.03,36.091c-31.516,7.464-64.644,11.174-98.47,11.027
	c-32.656-0.143-64.609-3.856-95.004-11.037l0.03-36.091c30.395,7.182,62.349,10.894,95.004,11.037
	C288.853,386.373,321.982,382.663,353.498,375.199z"/>
<g>
	<path style="fill:#CD2A01;" d="M235.959,166.595c10.699,6.176,27.982,6.179,38.611,0.002c5.278-3.067,7.92-7.081,7.931-11.102
		l0.015-5.28c0,0.117-0.01,0.234-0.016,0.352c0.171-4.19-2.507-8.416-8.046-11.614c-10.695-6.174-27.982-6.174-38.606,0
		c-5.298,3.078-7.938,7.11-7.932,11.143c0-0.014-0.002-0.027-0.001-0.04l-0.015,5.28
		C227.888,159.409,230.577,163.489,235.959,166.595z M330.524,171.952c10.699,6.176,27.986,6.176,38.61,0.002
		c5.28-3.069,7.924-7.085,7.935-11.105l0.015-5.28c0,0.116-0.01,0.232-0.016,0.348c0.17-4.188-2.509-8.413-8.046-11.609
		c-10.695-6.174-27.982-6.174-38.611,0.003c-5.296,3.077-7.936,7.109-7.93,11.142c0-0.013-0.002-0.026-0.002-0.039l-0.015,5.28
		C322.456,164.766,325.143,168.846,330.524,171.952z M458.767,238.34c0.172-4.189-2.507-8.415-8.044-11.611
		c-10.699-6.176-27.978-6.176-38.606,0c-5.296,3.077-7.937,7.109-7.932,11.142c0-0.013-0.001-0.026-0.001-0.039l-0.015,5.28
		c-0.011,4.072,2.676,8.151,8.059,11.259c10.695,6.174,27.982,6.174,38.606,0c5.28-3.068,7.921-7.082,7.933-11.103l0.015-5.28
		C458.782,238.105,458.773,238.222,458.767,238.34z M339.754,260.353l0.015-5.28c0,0.118-0.01,0.235-0.016,0.353
		c0.172-4.189-2.506-8.414-8.044-11.612c-10.695-6.174-27.982-6.174-38.606,0c-5.298,3.078-7.939,7.111-7.934,11.145
		c0-0.013-0.001-0.026-0.001-0.039l-0.015,5.28c-0.011,4.073,2.676,8.151,8.057,11.258c10.699,6.176,27.982,6.174,38.61-0.002
		C337.1,268.389,339.743,264.375,339.754,260.353z M397.867,269.834c-10.699-6.176-27.977-6.176-38.606,0
		c-5.296,3.077-7.937,7.109-7.932,11.142c0-0.013-0.001-0.026-0.001-0.039l-0.015,5.28c-0.011,4.072,2.676,8.151,8.059,11.259
		c10.694,6.174,27.982,6.174,38.606,0c5.28-3.068,7.923-7.082,7.933-11.103l0.015-5.28c0,0.117-0.01,0.234-0.016,0.352
		C406.082,277.256,403.404,273.031,397.867,269.834z M368.638,313.161c-10.699-6.176-27.986-6.176-38.611-0.002
		c-5.295,3.077-7.936,7.107-7.93,11.142c0-0.014-0.001-0.026-0.001-0.04l-0.015,5.28c-0.011,4.074,2.677,8.153,8.061,11.262
		c10.695,6.174,27.982,6.174,38.606,0c5.278-3.068,7.92-7.082,7.932-11.103l0.015-5.28c0,0.117-0.01,0.235-0.016,0.352
		C376.853,320.583,374.174,316.357,368.638,313.161z M293.215,223.146c10.695,6.174,27.978,6.176,38.606,0
		c5.278-3.068,7.92-7.082,7.932-11.103l0.015-5.28c0,0.117-0.01,0.235-0.016,0.352c0.172-4.189-2.506-8.415-8.043-11.611
		c-10.699-6.176-27.982-6.174-38.606,0c-5.298,3.078-7.939,7.109-7.933,11.142c0-0.013-0.001-0.026-0.001-0.039l-0.015,5.28
		C285.143,215.959,287.831,220.037,293.215,223.146z M149.008,214.763l0.015-5.28c0,0.117-0.01,0.234-0.016,0.351
		c0.172-4.189-2.507-8.415-8.044-11.611c-10.699-6.176-27.982-6.179-38.61-0.002c-5.296,3.077-7.936,7.107-7.93,11.142
		c0-0.014-0.002-0.026-0.002-0.04l-0.015,5.28c-0.011,4.074,2.677,8.154,8.061,11.262c10.695,6.174,27.982,6.174,38.606,0
		C146.354,222.798,148.996,218.783,149.008,214.763z M103.957,246.707c-10.695-6.174-27.982-6.174-38.606,0
		c-5.297,3.078-7.937,7.109-7.932,11.143c0-0.014-0.002-0.026-0.001-0.04l-0.015,5.28c-0.011,4.073,2.677,8.152,8.059,11.26
		c10.695,6.174,27.977,6.176,38.606,0c5.278-3.068,7.92-7.082,7.932-11.103l0.015-5.28c0,0.117-0.01,0.235-0.016,0.352
		C112.171,254.129,109.493,249.904,103.957,246.707z M220.389,267.571l0.015-5.28c0,0.117-0.01,0.234-0.016,0.351
		c0.171-4.19-2.508-8.416-8.048-11.614c-10.695-6.174-27.977-6.176-38.606,0c-5.296,3.077-7.936,7.109-7.931,11.142
		c0-0.013-0.002-0.026-0.001-0.039l-0.015,5.28c-0.012,4.073,2.676,8.152,8.057,11.259c10.699,6.176,27.986,6.176,38.611,0.002
		C217.735,275.604,220.377,271.591,220.389,267.571z M257.633,311.363l0.015-5.28c0,0.117-0.01,0.235-0.016,0.352
		c0.172-4.189-2.506-8.415-8.043-11.611c-10.699-6.176-27.982-6.174-38.606,0c-5.296,3.077-7.937,7.109-7.932,11.142
		c0-0.013-0.002-0.026-0.001-0.039l-0.015,5.28c-0.012,4.072,2.676,8.151,8.059,11.259c10.695,6.174,27.982,6.174,38.606,0
		C254.979,319.399,257.622,315.384,257.633,311.363z M297.964,331.791c-10.695-6.174-27.982-6.174-38.611,0.002
		c-5.296,3.077-7.936,7.109-7.931,11.143c0-0.014-0.002-0.026-0.002-0.04l-0.015,5.28c-0.012,4.073,2.676,8.152,8.057,11.259
		c10.699,6.176,27.986,6.176,38.611,0.002c5.28-3.069,7.924-7.084,7.935-11.105l0.015-5.28c0,0.116-0.01,0.232-0.016,0.347
		C306.179,339.212,303.501,334.988,297.964,331.791z M170.015,307.135c-10.694-6.174-27.982-6.174-38.606,0
		c-5.297,3.078-7.938,7.109-7.932,11.143c0-0.014-0.002-0.026-0.002-0.04l-0.015,5.28c-0.011,4.073,2.677,8.152,8.059,11.26
		c10.699,6.176,27.977,6.176,38.606,0c5.279-3.068,7.923-7.082,7.933-11.103l0.015-5.28c0,0.118-0.01,0.235-0.016,0.353
		C178.231,314.558,175.553,310.333,170.015,307.135z M131.302,167.993c10.694,6.174,27.982,6.174,38.606,0
		c5.281-3.069,7.924-7.085,7.935-11.106l0.015-5.28c0,0.117-0.01,0.234-0.016,0.351c0.171-4.189-2.507-8.414-8.042-11.609
		c-10.699-6.176-27.986-6.176-38.615,0c-5.295,3.077-7.936,7.107-7.93,11.142c0-0.014-0.002-0.026-0.002-0.04l-0.015,5.28
		C123.229,160.804,125.918,164.885,131.302,167.993z M197.69,219.942c10.699,6.176,27.977,6.176,38.606,0
		c5.279-3.068,7.923-7.082,7.933-11.103l0.015-5.28c0,0.119-0.01,0.237-0.016,0.355c0.173-4.19-2.504-8.416-8.044-11.614
		c-10.695-6.174-27.982-6.174-38.606,0c-5.297,3.078-7.937,7.109-7.932,11.143c0-0.014-0.002-0.026-0.001-0.04l-0.015,5.28
		C189.619,212.756,192.308,216.835,197.69,219.942z"/>
	<path style="fill:#CD2A01;" d="M282.516,150.215l-0.015,5.28c-0.011,4.021-2.654,8.035-7.931,11.102
		c-10.629,6.176-27.913,6.174-38.611-0.002c-5.382-3.108-8.071-7.187-8.059-11.26l0.015-5.28c-0.011,4.073,2.677,8.152,8.059,11.259
		c10.699,6.176,27.982,6.179,38.611,0.002C279.863,158.25,282.504,154.236,282.516,150.215z"/>
</g>
<path style="fill:#FF5023;" d="M274.454,138.953c10.699,6.176,10.755,16.191,0.13,22.365c-10.629,6.176-27.913,6.174-38.611-0.002
	c-10.695-6.174-10.754-16.186-0.125-22.362C246.473,132.779,263.761,132.779,274.454,138.953z"/>
<path style="fill:#CD2A01;" d="M377.085,155.569l-0.015,5.28c-0.011,4.022-2.654,8.037-7.935,11.105
	c-10.625,6.174-27.913,6.174-38.61-0.002c-5.381-3.107-8.069-7.186-8.057-11.259l0.015-5.28c-0.012,4.073,2.676,8.152,8.057,11.259
	c10.699,6.176,27.986,6.176,38.611,0.002C374.43,163.607,377.074,159.591,377.085,155.569z"/>
<path style="fill:#FF5023;" d="M369.024,144.307c10.699,6.176,10.755,16.191,0.125,22.367c-10.625,6.174-27.913,6.174-38.611-0.002
	c-10.695-6.174-10.751-16.188-0.125-22.362C341.042,138.133,358.33,138.133,369.024,144.307z"/>
<g>
	<path style="fill:#CD2A01;" d="M393.755,200.294c10.699,6.176,27.986,6.176,38.61,0.002c5.28-3.069,7.924-7.084,7.935-11.105
		l0.015-5.28c0,0.116-0.01,0.232-0.016,0.348c0.17-4.188-2.509-8.413-8.046-11.609c-10.695-6.174-27.982-6.174-38.611,0.003
		c-5.296,3.077-7.936,7.109-7.93,11.142c0-0.013-0.002-0.026-0.002-0.039l-0.015,5.28
		C385.686,193.109,388.374,197.188,393.755,200.294z"/>
	<path style="fill:#CD2A01;" d="M440.316,183.911l-0.015,5.28c-0.011,4.022-2.654,8.037-7.935,11.105
		c-10.625,6.174-27.913,6.174-38.611-0.002c-5.381-3.107-8.069-7.186-8.057-11.259l0.015-5.28
		c-0.011,4.073,2.676,8.152,8.057,11.259c10.699,6.176,27.986,6.176,38.61,0.002C437.661,191.949,440.305,187.933,440.316,183.911z"
		/>
</g>
<path style="fill:#FF5023;" d="M432.255,172.649c10.699,6.176,10.755,16.191,0.125,22.367c-10.625,6.174-27.913,6.174-38.611-0.002
	c-10.695-6.174-10.751-16.188-0.125-22.362C404.273,166.476,421.561,166.475,432.255,172.649z"/>
<path style="fill:#CD2A01;" d="M458.783,237.988l-0.015,5.28c-0.012,4.02-2.653,8.034-7.933,11.103
	c-10.625,6.174-27.913,6.174-38.606,0c-5.383-3.108-8.071-7.187-8.059-11.259l0.015-5.28c-0.011,4.072,2.676,8.151,8.059,11.259
	c10.695,6.174,27.982,6.174,38.606,0C456.129,246.022,458.772,242.008,458.783,237.988z"/>
<path style="fill:#FF5023;" d="M450.724,226.729c10.695,6.174,10.754,16.186,0.125,22.362c-10.625,6.174-27.913,6.174-38.606,0
	c-10.699-6.176-10.751-16.188-0.125-22.362C422.746,220.551,440.025,220.551,450.724,226.729z"/>
<path style="fill:#CD2A01;" d="M339.77,255.073l-0.015,5.28c-0.011,4.021-2.654,8.035-7.933,11.103
	c-10.629,6.176-27.913,6.18-38.61,0.002c-5.381-3.107-8.069-7.186-8.057-11.258l0.015-5.28c-0.011,4.073,2.676,8.151,8.057,11.258
	c10.699,6.176,27.982,6.174,38.61-0.002C337.115,263.109,339.758,259.095,339.77,255.073z"/>
<path style="fill:#FF5023;" d="M331.71,243.814c10.699,6.176,10.751,16.188,0.125,22.362c-10.629,6.176-27.913,6.18-38.611,0.002
	c-10.695-6.174-10.751-16.188-0.122-22.365C303.729,237.641,321.016,237.641,331.71,243.814z"/>
<path style="fill:#CD2A01;" d="M405.926,281.094l-0.015,5.28c-0.011,4.02-2.654,8.034-7.933,11.103
	c-10.625,6.174-27.913,6.174-38.606,0c-5.383-3.108-8.071-7.187-8.059-11.259l0.015-5.28c-0.012,4.072,2.676,8.151,8.059,11.259
	c10.695,6.174,27.982,6.174,38.606,0C403.272,289.129,405.915,285.114,405.926,281.094z"/>
<path style="fill:#FF5023;" d="M397.867,269.834c10.695,6.174,10.754,16.186,0.125,22.362c-10.625,6.174-27.913,6.174-38.606,0
	c-10.699-6.176-10.751-16.188-0.125-22.362C369.888,263.658,387.168,263.658,397.867,269.834z"/>
<path style="fill:#CD2A01;" d="M376.696,324.419l-0.015,5.28c-0.011,4.021-2.654,8.035-7.932,11.103
	c-10.625,6.174-27.913,6.174-38.606,0c-5.384-3.109-8.073-7.189-8.061-11.262l0.015-5.28c-0.012,4.074,2.677,8.153,8.061,11.262
	c10.695,6.174,27.982,6.174,38.606,0C374.042,332.455,376.684,328.44,376.696,324.419z"/>
<path style="fill:#FF5023;" d="M368.638,313.161c10.695,6.174,10.751,16.188,0.125,22.362c-10.625,6.174-27.913,6.174-38.606,0
	c-10.699-6.176-10.755-16.191-0.13-22.365S357.94,306.984,368.638,313.161z"/>
<path style="fill:#CD2A01;" d="M339.769,206.761l-0.015,5.28c-0.011,4.021-2.654,8.035-7.932,11.103
	c-10.629,6.176-27.913,6.174-38.606,0c-5.383-3.109-8.072-7.187-8.06-11.259l0.015-5.28c-0.011,4.072,2.677,8.151,8.06,11.259
	c10.695,6.174,27.977,6.176,38.606,0C337.115,214.798,339.757,210.783,339.769,206.761z"/>
<path style="fill:#FF5023;" d="M331.71,195.503c10.695,6.174,10.751,16.188,0.125,22.362c-10.629,6.176-27.913,6.174-38.606,0
	c-10.699-6.176-10.754-16.186-0.125-22.362C303.729,189.328,321.013,189.326,331.71,195.503z"/>
<path style="fill:#CD2A01;" d="M149.022,209.483l-0.015,5.28c-0.012,4.02-2.654,8.034-7.933,11.103
	c-10.625,6.174-27.913,6.174-38.606,0c-5.384-3.109-8.073-7.189-8.061-11.262l0.015-5.28c-0.011,4.074,2.677,8.154,8.061,11.262
	c10.695,6.174,27.982,6.174,38.606,0C146.369,217.518,149.011,213.503,149.022,209.483z"/>
<path style="fill:#FF5023;" d="M140.964,198.223c10.695,6.174,10.754,16.186,0.125,22.362c-10.625,6.174-27.913,6.174-38.606,0
	c-10.699-6.176-10.755-16.191-0.13-22.365C112.981,192.045,130.265,192.047,140.964,198.223z"/>
<path style="fill:#CD2A01;" d="M112.015,257.966l-0.015,5.28c-0.011,4.021-2.654,8.035-7.932,11.103
	c-10.629,6.176-27.913,6.174-38.606,0c-5.382-3.108-8.071-7.187-8.059-11.26l0.015-5.28c-0.011,4.073,2.677,8.152,8.059,11.259
	c10.695,6.174,27.977,6.176,38.606,0C109.361,266.002,112.003,261.987,112.015,257.966z"/>
<path style="fill:#FF5023;" d="M103.957,246.707c10.695,6.174,10.751,16.188,0.125,22.362c-10.629,6.176-27.913,6.174-38.606,0
	c-10.695-6.174-10.754-16.186-0.125-22.362C75.975,240.533,93.263,240.533,103.957,246.707z"/>
<path style="fill:#CD2A01;" d="M220.403,262.291l-0.015,5.28c-0.012,4.02-2.654,8.034-7.933,11.102
	c-10.625,6.174-27.913,6.174-38.611-0.002c-5.381-3.107-8.069-7.186-8.057-11.259l0.015-5.28c-0.011,4.073,2.676,8.152,8.057,11.259
	c10.699,6.176,27.986,6.176,38.61,0.002C217.75,270.324,220.392,266.311,220.403,262.291z"/>
<path style="fill:#FF5023;" d="M212.341,251.028c10.699,6.176,10.758,16.188,0.13,22.365c-10.625,6.174-27.913,6.174-38.61-0.002
	c-10.695-6.174-10.751-16.188-0.125-22.362C184.363,244.852,201.646,244.854,212.341,251.028z"/>
<path style="fill:#CD2A01;" d="M257.648,306.083l-0.015,5.28c-0.011,4.021-2.654,8.035-7.932,11.103
	c-10.625,6.174-27.913,6.174-38.606,0c-5.383-3.108-8.071-7.187-8.059-11.259l0.015-5.28c-0.012,4.072,2.676,8.151,8.059,11.259
	c10.695,6.174,27.982,6.174,38.606,0C254.994,314.119,257.637,310.104,257.648,306.083z"/>
<path style="fill:#FF5023;" d="M249.591,294.824c10.695,6.174,10.751,16.188,0.125,22.362c-10.625,6.174-27.913,6.174-38.606,0
	c-10.699-6.176-10.751-16.188-0.125-22.362C221.608,288.65,238.892,288.647,249.591,294.824z"/>
<path style="fill:#CD2A01;" d="M306.024,343.052l-0.015,5.28c-0.012,4.022-2.654,8.037-7.935,11.105
	c-10.625,6.174-27.913,6.174-38.611-0.002c-5.381-3.107-8.069-7.186-8.057-11.259l0.015-5.28c-0.012,4.073,2.676,8.152,8.057,11.259
	c10.699,6.176,27.986,6.176,38.611,0.002C303.37,351.09,306.013,347.074,306.024,343.052z"/>
<path style="fill:#FF5023;" d="M297.964,331.791c10.699,6.176,10.755,16.191,0.125,22.367c-10.625,6.174-27.913,6.174-38.611-0.002
	c-10.695-6.174-10.751-16.188-0.125-22.362C269.982,325.617,287.269,325.617,297.964,331.791z"/>
<path style="fill:#CD2A01;" d="M178.073,318.393l-0.015,5.28c-0.012,4.021-2.654,8.035-7.933,11.103
	c-10.629,6.176-27.909,6.176-38.606,0c-5.382-3.108-8.071-7.187-8.059-11.26l0.015-5.28c-0.011,4.073,2.677,8.152,8.059,11.259
	c10.699,6.176,27.977,6.176,38.606,0C175.419,326.43,178.062,322.415,178.073,318.393z"/>
<path style="fill:#FF5023;" d="M170.015,307.135c10.699,6.176,10.751,16.188,0.125,22.362c-10.629,6.176-27.909,6.176-38.606,0
	c-10.695-6.174-10.754-16.186-0.125-22.362C142.032,300.96,159.32,300.96,170.015,307.135z"/>
<path style="fill:#CD2A01;" d="M177.859,151.606l-0.015,5.28c-0.011,4.022-2.654,8.037-7.935,11.106
	c-10.625,6.174-27.913,6.174-38.606,0c-5.384-3.109-8.073-7.189-8.061-11.262l0.015-5.28c-0.011,4.074,2.677,8.153,8.061,11.262
	c10.695,6.174,27.982,6.174,38.606,0C175.205,159.644,177.847,155.628,177.859,151.606z"/>
<path style="fill:#FF5023;" d="M169.801,140.348c10.695,6.174,10.751,16.188,0.122,22.365c-10.625,6.174-27.913,6.174-38.606,0
	c-10.699-6.176-10.755-16.191-0.13-22.365C141.816,134.171,159.104,134.171,169.801,140.348z"/>
<path style="fill:#CD2A01;" d="M244.245,203.559l-0.015,5.28c-0.011,4.021-2.654,8.035-7.933,11.103
	c-10.629,6.176-27.909,6.176-38.606,0c-5.382-3.108-8.071-7.187-8.059-11.259l0.015-5.28c-0.012,4.073,2.677,8.152,8.059,11.259
	c10.699,6.176,27.977,6.176,38.606,0C241.59,211.594,244.234,207.58,244.245,203.559z"/>
<path style="fill:#FF5023;" d="M236.186,192.3c10.699,6.176,10.751,16.188,0.126,22.362c-10.629,6.176-27.909,6.176-38.606,0
	c-10.695-6.174-10.754-16.186-0.125-22.362C208.204,186.125,225.491,186.125,236.186,192.3z"/>
<g>
</g>
<g>
</g>
<g>
</g>
<g>
</g>
<g>
</g>
<g>
</g>
<g>
</g>
<g>
</g>
<g>
</g>
<g>
</g>
<g>
</g>
<g>
</g>
<g>
</g>
<g>
</g>
<g>
</g>
</svg>
